<svg width="24" height="24" viewBox="0 0 24 24" fill="none" xmlns="http://www.w3.org/2000/svg">
<path d="M20.75 15.75V3.25H3.25V15.75H20.75ZM0.75 1.99125C0.75 1.30625 1.30625 0.75 1.99125 0.75H22.0088C22.6938 0.75 23.25 1.30625 23.25 1.99125V22.0088C23.2497 22.3378 23.1188 22.6534 22.8861 22.8861C22.6534 23.1188 22.3378 23.2497 22.0088 23.25H1.99125C1.66215 23.2497 1.34663 23.1188 1.11392 22.8861C0.881211 22.6534 0.750331 22.3378 0.75 22.0088V1.99125ZM12 12C12.663 12 13.2989 11.7366 13.7678 11.2678C14.2366 10.7989 14.5 10.163 14.5 9.5C14.5 8.83696 14.2366 8.20107 13.7678 7.73223C13.2989 7.26339 12.663 7 12 7C11.337 7 10.7011 7.26339 10.2322 7.73223C9.76339 8.20107 9.5 8.83696 9.5 9.5C9.5 10.163 9.76339 10.7989 10.2322 11.2678C10.7011 11.7366 11.337 12 12 12ZM12 14.5C10.6739 14.5 9.40215 13.9732 8.46447 13.0355C7.52678 12.0979 7 10.8261 7 9.5C7 8.17392 7.52678 6.90215 8.46447 5.96447C9.40215 5.02678 10.6739 4.5 12 4.5C13.3261 4.5 14.5979 5.02678 15.5355 5.96447C16.4732 6.90215 17 8.17392 17 9.5C17 10.8261 16.4732 12.0979 15.5355 13.0355C14.5979 13.9732 13.3261 14.5 12 14.5ZM4.5 4.5H7V7H4.5V4.5ZM4.5 18.25V20.75H19.5V18.25H4.5Z" fill="#B8B8BB"/>
</svg>
